<svg width="632" height="232" viewBox="0 0 632 232" fill="none" xmlns="http://www.w3.org/2000/svg">
<path opacity="0.15" d="M159.268 90.3659C159.268 51.3561 127.644 19.7318 88.6338 19.7318C49.624 19.7318 17.9998 51.3561 17.9998 90.3659C17.9998 129.376 49.624 161 88.6338 161C127.644 161 159.268 129.376 159.268 90.3659Z" fill="#FF383D"/>
<path d="M58.2026 76.2264H53.938V87.9999H51.3599V76.2264H47.0522V73.8954H58.2026V76.2264ZM60.1147 73.8954H62.6929V79.7499L68.9448 79.7714V73.8954H71.5337V87.9999H68.9448V81.995H62.6929V87.9999H60.1147V73.8954ZM74.5737 73.8954H80.1704C81.8892 73.8954 83.1925 74.2785 84.0806 75.0448C84.9757 75.8039 85.4233 76.8889 85.4233 78.2997C85.4233 79.2808 85.1942 80.1187 84.7358 80.8134C84.2847 81.5009 83.6473 81.9986 82.8237 82.3065L85.5093 87.9999H82.6304L80.2563 82.7469H77.1519V87.9999H74.5737V73.8954ZM80.1704 80.5018C81.0083 80.5018 81.6421 80.3013 82.0718 79.9003C82.5015 79.4921 82.7163 78.9657 82.7163 78.3212C82.7163 77.6766 82.4979 77.1574 82.061 76.7635C81.6313 76.3625 81.0011 76.162 80.1704 76.162H77.1519V80.5018H80.1704ZM101.87 80.9423C101.87 82.3602 101.547 83.6278 100.903 84.745C100.258 85.8622 99.3667 86.7323 98.228 87.3553C97.0965 87.9784 95.8254 88.2899 94.4146 88.2899C93.0037 88.2899 91.7326 87.982 90.6011 87.3661C89.4767 86.7502 88.5959 85.8837 87.9585 84.7665C87.3211 83.6493 87.0024 82.3817 87.0024 80.9637C87.0024 79.5386 87.3211 78.271 87.9585 77.161C88.5959 76.0438 89.4767 75.1737 90.6011 74.5507C91.7326 73.9276 93.0109 73.6161 94.436 73.6161C95.8468 73.6161 97.1144 73.9276 98.2388 74.5507C99.3703 75.1737 100.258 76.0402 100.903 77.1503C101.547 78.2531 101.87 79.5171 101.87 80.9423ZM99.1411 80.9423C99.1411 79.9826 98.9406 79.1304 98.5396 78.3856C98.1385 77.6408 97.5763 77.0608 96.853 76.6454C96.1369 76.2229 95.3312 76.0116 94.436 76.0116C93.5265 76.0116 92.7101 76.2229 91.9868 76.6454C91.2707 77.0608 90.7085 77.6408 90.3003 78.3856C89.8921 79.1304 89.688 79.9898 89.688 80.9637C89.688 81.9162 89.8921 82.7684 90.3003 83.5204C90.7085 84.2652 91.2707 84.8453 91.9868 85.2606C92.7101 85.676 93.5265 85.8837 94.436 85.8837C95.3312 85.8837 96.1369 85.676 96.853 85.2606C97.5763 84.8453 98.1385 84.2652 98.5396 83.5204C98.9406 82.7684 99.1411 81.9091 99.1411 80.9423ZM107.456 73.8954H110.077L115.308 87.9999H112.58L111.441 84.788H106.048L104.856 87.9999H102.192L107.456 73.8954ZM110.689 82.6503L109.787 80.1688C109.701 79.9325 109.464 79.2343 109.078 78.0741L108.777 77.1932C108.72 77.3866 108.583 77.7912 108.369 78.4071C108.154 79.023 107.935 79.6102 107.713 80.1688L106.79 82.6503H110.689ZM125.707 76.2264H121.442V87.9999H118.864V76.2264H114.556V73.8954H125.707V76.2264ZM73.6821 102.895C75.1646 102.895 76.3283 103.314 77.1733 104.152C78.0256 104.99 78.4517 106.111 78.4517 107.515C78.4517 108.424 78.2583 109.23 77.8716 109.932C77.4849 110.626 76.9263 111.17 76.1958 111.564C75.4725 111.958 74.6203 112.155 73.6392 112.155H70.4702V117H67.8921V102.895H73.6821ZM73.1558 109.942C74.0223 109.942 74.6704 109.71 75.1001 109.244C75.5369 108.771 75.7554 108.181 75.7554 107.472C75.7554 106.827 75.5369 106.283 75.1001 105.839C74.6704 105.388 74.0438 105.162 73.2202 105.162H70.4702V109.942H73.1558ZM83.3716 102.895H85.9927L91.2241 117H88.4956L87.3569 113.788H81.9644L80.772 117H78.1079L83.3716 102.895ZM86.605 111.65L85.7026 109.169C85.6167 108.932 85.3804 108.234 84.9937 107.074L84.6929 106.193C84.6356 106.387 84.4995 106.791 84.2847 107.407C84.0698 108.023 83.8514 108.61 83.6294 109.169L82.7056 111.65H86.605ZM93.0288 117V102.895H95.6069V117H93.0288ZM110.098 102.895V117H107.681L101.193 107.343V117H98.6362V102.895H101.064L107.552 112.574V102.895H110.098Z" fill="#FF383D"/>
<path d="M89.9726 2.0255C41.2003 2.0255 1.6626 41.5632 1.6626 90.3382C1.6626 139.111 41.2003 178.648 89.9726 178.648V222.262" stroke="#FFD6D7" stroke-width="2.4" stroke-miterlimit="10"/>
<path d="M97.4327 224.545C97.4327 220.533 94.1821 217.282 90.1705 217.282C86.1615 217.282 82.9082 220.533 82.9082 224.545C82.9082 228.556 86.1615 231.807 90.1705 231.807C94.1821 231.807 97.4327 228.556 97.4327 224.545Z" fill="#F2AEB0"/>
<path d="M190.511 105.07H393.822C401.243 105.07 408.246 101.637 412.792 95.772L455.528 40.6287C460.074 34.7632 467.077 31.3304 474.498 31.3304H631.721" stroke="#FFB2B1" stroke-width="5" stroke-linejoin="round"/>
<path d="M200.761 105.586C200.761 110.622 196.678 114.704 191.642 114.704C186.606 114.704 182.524 110.622 182.524 105.586C182.524 100.55 186.606 96.4674 191.642 96.4674C196.678 96.4674 200.761 100.55 200.761 105.586Z" fill="#FF383D"/>
</svg>
