<svg width="521" height="246" viewBox="0 0 521 246" fill="none" xmlns="http://www.w3.org/2000/svg">
<path d="M0.77002 3.04553H169.584C178.398 3.04553 186.503 7.87681 190.695 15.6299L221.944 73.419C226.136 81.1721 234.241 86.0034 243.055 86.0034H325.84" stroke="#FFB2B1" stroke-width="5" stroke-linejoin="round"/>
<path d="M329.944 85.9044C329.944 90.9405 325.862 95.0228 320.826 95.0228C315.79 95.0228 311.708 90.9405 311.708 85.9044C311.708 80.8684 315.79 76.786 320.826 76.786C325.862 76.786 329.944 80.8684 329.944 85.9044Z" fill="#FF383D"/>
<path opacity="0.15" d="M355.732 104.366C355.732 65.3561 387.356 33.7318 426.366 33.7318C465.376 33.7318 497 65.3561 497 104.366C497 143.376 465.376 175 426.366 175C387.356 175 355.732 143.376 355.732 104.366Z" fill="#FF383D"/>
<path d="M392.72 84.8954H398.316C400.035 84.8954 401.339 85.2786 402.227 86.0449C403.122 86.804 403.569 87.8889 403.569 89.2997C403.569 90.2809 403.34 91.1188 402.882 91.8134C402.431 92.5009 401.793 92.9986 400.97 93.3066L403.655 98.9999H400.776L398.402 93.747H395.298V98.9999H392.72V84.8954ZM398.316 91.5019C399.154 91.5019 399.788 91.3014 400.218 90.9003C400.648 90.4921 400.862 89.9658 400.862 89.3212C400.862 88.6767 400.644 88.1575 400.207 87.7636C399.777 87.3626 399.147 87.162 398.316 87.162H395.298V91.5019H398.316ZM405.933 84.8954H408.511V93.8115C408.511 94.9 408.819 95.6913 409.435 96.1855C410.051 96.6796 410.835 96.9267 411.787 96.9267C412.797 96.9267 413.599 96.6653 414.193 96.1425C414.788 95.6126 415.085 94.8356 415.085 93.8115V84.8954H417.663V93.9189C417.663 95.079 417.409 96.0637 416.9 96.873C416.392 97.6751 415.694 98.2802 414.806 98.6884C413.925 99.0895 412.919 99.29 411.787 99.29C410.641 99.29 409.628 99.0859 408.747 98.6777C407.866 98.2623 407.175 97.6536 406.674 96.8515C406.18 96.0423 405.933 95.0647 405.933 93.9189V84.8954ZM432.176 84.8954V98.9999H429.759L423.271 89.3427V98.9999H420.714V84.8954H423.142L429.63 94.5742V84.8954H432.176ZM446.807 84.8954V98.9999H444.39L437.901 89.3427V98.9999H435.345V84.8954H437.773L444.261 94.5742V84.8954H446.807ZM451.587 84.8954L453.263 87.7529C453.671 88.469 454.033 89.1314 454.348 89.7402C454.663 90.3417 454.856 90.7213 454.928 90.8788C455.014 90.7141 455.207 90.3561 455.508 89.8046C455.816 89.246 456.195 88.5621 456.647 87.7529L458.322 84.8954H461.201L456.206 93.3495V98.9999H453.628V93.3495L448.611 84.8954H451.587ZM411.755 113.895V128H409.338L402.85 118.343V128H400.293V113.895H402.721L409.209 123.574V113.895H411.755ZM429.007 120.942C429.007 122.36 428.685 123.628 428.04 124.745C427.396 125.862 426.504 126.732 425.365 127.355C424.234 127.978 422.963 128.29 421.552 128.29C420.141 128.29 418.87 127.982 417.738 127.366C416.614 126.75 415.733 125.884 415.096 124.767C414.458 123.649 414.14 122.382 414.14 120.964C414.14 119.539 414.458 118.271 415.096 117.161C415.733 116.044 416.614 115.174 417.738 114.551C418.87 113.928 420.148 113.616 421.573 113.616C422.984 113.616 424.252 113.928 425.376 114.551C426.508 115.174 427.396 116.04 428.04 117.15C428.685 118.253 429.007 119.517 429.007 120.942ZM426.278 120.942C426.278 119.983 426.078 119.13 425.677 118.386C425.276 117.641 424.714 117.061 423.99 116.645C423.274 116.223 422.468 116.012 421.573 116.012C420.664 116.012 419.847 116.223 419.124 116.645C418.408 117.061 417.846 117.641 417.438 118.386C417.029 119.13 416.825 119.99 416.825 120.964C416.825 121.916 417.029 122.768 417.438 123.52C417.846 124.265 418.408 124.845 419.124 125.261C419.847 125.676 420.664 125.884 421.573 125.884C422.468 125.884 423.274 125.676 423.99 125.261C424.714 124.845 425.276 124.265 425.677 123.52C426.078 122.768 426.278 121.909 426.278 120.942ZM430.855 117.902C430.855 117.036 431.062 116.28 431.478 115.636C431.9 114.991 432.491 114.493 433.25 114.143C434.016 113.792 434.897 113.616 435.893 113.616C436.874 113.616 437.747 113.788 438.514 114.132C439.28 114.476 439.878 114.963 440.308 115.593C440.737 116.223 440.952 116.957 440.952 117.795H438.299C438.285 117.193 438.045 116.71 437.579 116.345C437.121 115.972 436.516 115.786 435.764 115.786C435.076 115.786 434.525 115.958 434.109 116.302C433.701 116.638 433.497 117.075 433.497 117.612C433.497 118.142 433.676 118.532 434.034 118.783C434.399 119.034 434.883 119.231 435.484 119.374L437.794 119.943C438.847 120.194 439.699 120.656 440.351 121.329C441.002 121.995 441.328 122.854 441.328 123.907C441.328 124.788 441.106 125.558 440.662 126.217C440.225 126.876 439.602 127.388 438.793 127.753C437.991 128.111 437.056 128.29 435.989 128.29C434.407 128.29 433.118 127.907 432.122 127.141C431.134 126.367 430.597 125.318 430.511 123.993H433.164C433.193 124.652 433.468 125.171 433.991 125.551C434.514 125.923 435.194 126.109 436.032 126.109C436.842 126.109 437.475 125.937 437.934 125.594C438.392 125.25 438.621 124.777 438.621 124.176C438.621 123.66 438.46 123.27 438.138 123.005C437.815 122.74 437.393 122.543 436.87 122.414L434.507 121.845C433.347 121.565 432.448 121.1 431.811 120.448C431.173 119.789 430.855 118.941 430.855 117.902ZM446.248 116.248V119.771H452.038V122.017H446.248V125.647H452.693V128H443.67V113.895H452.693V116.248H446.248Z" fill="#FF383D"/>
<path d="M431.03 16.2651C479.803 16.2651 519.34 55.8028 519.34 104.578C519.34 153.35 479.803 192.888 431.03 192.888V236.501" stroke="#FFD6D7" stroke-width="2.4" stroke-miterlimit="10"/>
<path d="M423.769 238.704C423.769 234.692 427.02 231.442 431.031 231.442C435.04 231.442 438.293 234.692 438.293 238.704C438.293 242.716 435.04 245.966 431.031 245.966C427.02 245.966 423.769 242.716 423.769 238.704Z" fill="#F2AEB0"/>
</svg>
