<svg width="436" height="232" viewBox="0 0 436 232" fill="none" xmlns="http://www.w3.org/2000/svg">
<path opacity="0.13" d="M435.002 88.3659C435.002 49.3561 403.378 17.7318 364.368 17.7318C325.358 17.7318 293.737 49.3561 293.737 88.3659C293.737 127.376 325.358 159 364.368 159C403.378 159 435.002 127.376 435.002 88.3659Z" fill="#FF383D"/>
<path d="M320.716 71.9022C320.716 71.0357 320.924 70.2801 321.339 69.6356C321.762 68.9911 322.353 68.4933 323.112 68.1424C323.878 67.7915 324.759 67.6161 325.754 67.6161C326.736 67.6161 327.609 67.7879 328.375 68.1317C329.142 68.4754 329.74 68.9624 330.169 69.5926C330.599 70.2228 330.814 70.9569 330.814 71.7948H328.161C328.146 71.1932 327.906 70.7098 327.441 70.3446C326.983 69.9722 326.377 69.786 325.625 69.786C324.938 69.786 324.387 69.9579 323.971 70.3016C323.563 70.6382 323.359 71.075 323.359 71.6122C323.359 72.1421 323.538 72.5324 323.896 72.7831C324.261 73.0337 324.745 73.2306 325.346 73.3739L327.656 73.9432C328.708 74.1939 329.561 74.6558 330.212 75.3289C330.864 75.995 331.19 76.8543 331.19 77.9071C331.19 78.7879 330.968 79.5578 330.524 80.2166C330.087 80.8755 329.464 81.3875 328.655 81.7528C327.853 82.1109 326.918 82.2899 325.851 82.2899C324.268 82.2899 322.979 81.9067 321.984 81.1405C320.996 80.367 320.458 79.3179 320.373 77.993H323.026C323.055 78.6519 323.33 79.1711 323.853 79.5506C324.376 79.923 325.056 80.1092 325.894 80.1092C326.703 80.1092 327.337 79.9373 327.795 79.5936C328.254 79.2498 328.483 78.7772 328.483 78.1756C328.483 77.66 328.322 77.2697 328 77.0047C327.677 76.7398 327.255 76.5428 326.732 76.4139L324.369 75.8446C323.208 75.5653 322.31 75.0998 321.672 74.4481C321.035 73.7892 320.716 72.9406 320.716 71.9022ZM333.532 67.8954H336.11V73.7498L342.362 73.7713V67.8954H344.951V81.9998H342.362V75.995H336.11V81.9998H333.532V67.8954ZM351.869 67.8954H354.49L359.721 81.9998H356.993L355.854 78.7879H350.461L349.269 81.9998H346.605L351.869 67.8954ZM355.102 76.6502L354.2 74.1688C354.114 73.9325 353.877 73.2342 353.491 72.0741L353.19 71.1932C353.133 71.3866 352.997 71.7912 352.782 72.4071C352.567 73.023 352.348 73.6102 352.126 74.1688L351.203 76.6502H355.102ZM368.218 73.9647L373.084 81.9998H369.98L366.457 76.1454L364.125 79.035V82.0428H361.526V67.8954H364.125V75.0711L369.894 67.8954H373.106L368.218 73.9647ZM374.954 81.9998V67.8954H377.532V81.9998H374.954ZM392.023 67.8954V81.9998H389.606L383.118 72.3426V81.9998H380.561V67.8954H382.989L389.477 77.5741V67.8954H392.023ZM408.62 74.3407V75.6834C408.62 76.9868 408.319 78.1398 407.717 79.1424C407.116 80.1379 406.278 80.9113 405.204 81.4627C404.137 82.0142 402.919 82.2899 401.551 82.2899C400.126 82.2899 398.876 81.9891 397.802 81.3875C396.728 80.786 395.894 79.9409 395.299 78.8524C394.705 77.7567 394.408 76.4891 394.408 75.0497C394.408 73.5816 394.712 72.2889 395.321 71.1717C395.93 70.0474 396.782 69.1737 397.877 68.5506C398.98 67.9276 400.244 67.6161 401.669 67.6161C402.815 67.6161 403.854 67.8166 404.785 68.2176C405.723 68.6187 406.5 69.1844 407.116 69.9149C407.732 70.6382 408.136 71.4689 408.33 72.4071H405.58C405.3 71.648 404.806 71.0571 404.097 70.6346C403.388 70.2049 402.554 69.9901 401.594 69.9901C400.198 69.9901 399.095 70.4484 398.286 71.3651C397.476 72.2817 397.072 73.4956 397.072 75.0067C397.072 76.5178 397.48 77.7101 398.296 78.5838C399.12 79.4504 400.226 79.8836 401.616 79.8836C402.776 79.8836 403.736 79.5936 404.495 79.0135C405.261 78.4263 405.719 77.6027 405.87 76.5428H401.401V74.3407H408.62ZM337.968 111.29C336.557 111.29 335.301 110.986 334.198 110.377C333.102 109.768 332.246 108.905 331.63 107.788C331.014 106.671 330.707 105.389 330.707 103.942C330.707 102.503 331.011 101.228 331.62 100.118C332.228 99.0008 333.081 98.1379 334.176 97.5291C335.279 96.9204 336.543 96.6161 337.968 96.6161C339.143 96.6161 340.217 96.8166 341.191 97.2176C342.165 97.6187 342.971 98.1987 343.608 98.9579C344.245 99.7098 344.653 100.584 344.833 101.579H341.964C341.742 100.82 341.27 100.2 340.546 99.7206C339.823 99.2336 338.957 98.9901 337.947 98.9901C337.037 98.9901 336.235 99.1942 335.541 99.6024C334.853 100.011 334.323 100.594 333.951 101.353C333.578 102.105 333.392 102.975 333.392 103.964C333.392 104.959 333.582 105.833 333.961 106.585C334.341 107.33 334.875 107.899 335.562 108.293C336.257 108.687 337.052 108.884 337.947 108.884C338.928 108.884 339.784 108.647 340.514 108.175C341.252 107.695 341.735 107.061 341.964 106.273H344.833C344.668 107.254 344.27 108.128 343.64 108.894C343.01 109.653 342.208 110.244 341.234 110.667C340.26 111.082 339.171 111.29 337.968 111.29ZM347.174 96.8954H349.752V102.75L356.004 102.771V96.8954H358.593V111H356.004V104.995H349.752V111H347.174V96.8954ZM361.633 111V96.8954H364.211V111H361.633ZM375.673 108.669V111H367.241V96.8954H369.84V108.669H375.673ZM386.179 108.669V111H377.747V96.8954H380.346V108.669H386.179ZM387.855 100.902C387.855 100.036 388.063 99.2801 388.478 98.6356C388.901 97.9911 389.491 97.4933 390.25 97.1424C391.017 96.7915 391.898 96.6161 392.893 96.6161C393.874 96.6161 394.748 96.7879 395.514 97.1317C396.28 97.4754 396.878 97.9624 397.308 98.5926C397.738 99.2228 397.953 99.9569 397.953 100.795H395.299C395.285 100.193 395.045 99.7098 394.58 99.3446C394.121 98.9722 393.516 98.786 392.764 98.786C392.077 98.786 391.525 98.9579 391.11 99.3016C390.702 99.6382 390.498 100.075 390.498 100.612C390.498 101.142 390.677 101.532 391.035 101.783C391.4 102.034 391.883 102.231 392.485 102.374L394.794 102.943C395.847 103.194 396.699 103.656 397.351 104.329C398.003 104.995 398.329 105.854 398.329 106.907C398.329 107.788 398.107 108.558 397.663 109.217C397.226 109.875 396.603 110.388 395.793 110.753C394.991 111.111 394.057 111.29 392.99 111.29C391.407 111.29 390.118 110.907 389.123 110.14C388.134 109.367 387.597 108.318 387.511 106.993H390.165C390.193 107.652 390.469 108.171 390.992 108.551C391.514 108.923 392.195 109.109 393.033 109.109C393.842 109.109 394.476 108.937 394.934 108.594C395.392 108.25 395.622 107.777 395.622 107.176C395.622 106.66 395.46 106.27 395.138 106.005C394.816 105.74 394.393 105.543 393.871 105.414L391.507 104.845C390.347 104.565 389.448 104.1 388.811 103.448C388.174 102.789 387.855 101.941 387.855 100.902Z" fill="#FA5652"/>
<path d="M364.868 1.80112C316.096 1.80112 276.558 41.3388 276.558 90.1111C276.558 138.886 316.096 178.424 364.868 178.424V222.035" stroke="#FFD6D7" stroke-width="2.4" stroke-miterlimit="10"/>
<path d="M372.126 224.239C372.126 220.227 368.876 216.976 364.864 216.976C360.853 216.976 357.602 220.227 357.602 224.239C357.602 228.248 360.853 231.501 364.864 231.501C368.876 231.501 372.126 228.248 372.126 224.239Z" fill="#F2AEB0"/>
<path d="M0.737793 142.4H91.8462C99.1244 142.4 106.009 139.098 110.565 133.421L136.096 101.605C140.651 95.9288 147.536 92.6261 154.814 92.6261H248.995" stroke="#FFA6A6" stroke-width="5" stroke-linejoin="round"/>
<path d="M254.943 91.9125C254.943 96.9485 250.861 101.031 245.825 101.031C240.789 101.031 236.706 96.9485 236.706 91.9125C236.706 86.8764 240.789 82.7941 245.825 82.7941C250.861 82.7941 254.943 86.8764 254.943 91.9125Z" fill="#FF383D"/>
</svg>
