<svg width="487" height="232" viewBox="0 0 487 232" fill="none" xmlns="http://www.w3.org/2000/svg">
<path opacity="0.15" d="M486.001 88.3659C486.001 49.3561 454.377 17.7319 415.367 17.7319C376.357 17.7319 344.736 49.3561 344.736 88.3659C344.736 127.376 376.357 159 415.367 159C454.377 159 486.001 127.376 486.001 88.3659Z" fill="#FF383D"/>
<path d="M362.58 84.8955H365.158V90.75L371.41 90.7715V84.8955H373.999V99H371.41V92.9951H365.158V99H362.58V84.8955ZM379.617 87.248V90.7715H385.407V93.0166H379.617V96.6475H386.063V99H377.039V84.8955H386.063V87.248H379.617ZM392.669 84.8955H395.29L400.522 99H397.793L396.655 95.7881H391.262L390.07 99H387.406L392.669 84.8955ZM395.903 93.6504L395 91.1689C394.914 90.9326 394.678 90.2344 394.291 89.0742L393.99 88.1934C393.933 88.3867 393.797 88.7913 393.582 89.4072C393.367 90.0231 393.149 90.6104 392.927 91.1689L392.003 93.6504H395.903ZM407.569 84.8955C408.944 84.8955 410.168 85.1963 411.242 85.7979C412.324 86.3994 413.165 87.2409 413.767 88.3223C414.368 89.3965 414.669 90.6175 414.669 91.9854C414.669 93.346 414.372 94.5599 413.778 95.627C413.183 96.6868 412.345 97.514 411.264 98.1084C410.19 98.7028 408.958 99 407.569 99H402.326V84.8955H407.569ZM407.343 96.6475C408.267 96.6475 409.076 96.4541 409.771 96.0674C410.473 95.6735 411.013 95.1257 411.393 94.4238C411.772 93.722 411.962 92.9092 411.962 91.9854C411.962 91.0472 411.772 90.2236 411.393 89.5146C411.013 88.7985 410.473 88.2435 409.771 87.8496C409.076 87.4486 408.267 87.248 407.343 87.248H404.905V96.6475H407.343ZM420.255 84.8955H422.876L428.108 99H425.379L424.24 95.7881H418.848L417.656 99H414.991L420.255 84.8955ZM423.489 93.6504L422.586 91.1689C422.5 90.9326 422.264 90.2344 421.877 89.0742L421.576 88.1934C421.519 88.3867 421.383 88.7913 421.168 89.4072C420.953 90.0231 420.735 90.6104 420.513 91.1689L419.589 93.6504H423.489ZM435.724 99.29C434.313 99.29 433.056 98.9857 431.953 98.377C430.858 97.7682 430.002 96.9053 429.386 95.7881C428.77 94.6709 428.462 93.389 428.462 91.9424C428.462 90.5029 428.767 89.2282 429.375 88.1182C429.984 87.001 430.836 86.138 431.932 85.5293C433.035 84.9206 434.299 84.6162 435.724 84.6162C436.898 84.6162 437.973 84.8167 438.947 85.2178C439.92 85.6188 440.726 86.1989 441.364 86.958C442.001 87.71 442.409 88.5837 442.588 89.5791H439.72C439.498 88.82 439.025 88.2005 438.302 87.7207C437.579 87.2337 436.712 86.9902 435.702 86.9902C434.793 86.9902 433.991 87.1943 433.296 87.6025C432.609 88.0107 432.079 88.5944 431.706 89.3535C431.334 90.1055 431.148 90.9756 431.148 91.9639C431.148 92.9593 431.337 93.833 431.717 94.585C432.097 95.3298 432.63 95.8991 433.318 96.293C434.012 96.6868 434.807 96.8838 435.702 96.8838C436.684 96.8838 437.539 96.6475 438.27 96.1748C439.007 95.695 439.491 95.0612 439.72 94.2734H442.588C442.423 95.2546 442.026 96.1283 441.396 96.8945C440.766 97.6536 439.963 98.2445 438.99 98.667C438.016 99.0824 436.927 99.29 435.724 99.29ZM444.93 84.8955H447.508V90.75L453.76 90.7715V84.8955H456.349V99H453.76V92.9951H447.508V99H444.93V84.8955ZM461.967 87.248V90.7715H467.757V93.0166H461.967V96.6475H468.412V99H459.389V84.8955H468.412V87.248H461.967Z" fill="#FF383D"/>
<path d="M415.868 1.64969C367.096 1.64969 327.558 41.1874 327.558 89.9597C327.558 138.732 367.096 178.272 415.868 178.272V221.883" stroke="#FFD6D7" stroke-width="2.4" stroke-miterlimit="10"/>
<path d="M423.13 224.087C423.13 220.075 419.88 216.825 415.868 216.825C411.856 216.825 408.606 220.075 408.606 224.087C408.606 228.099 411.856 231.349 415.868 231.349C419.88 231.349 423.13 228.099 423.13 224.087Z" fill="#F2AEB0"/>
<path d="M301.839 96.8593H175.559C169.442 96.8593 163.555 99.1952 159.102 103.39L130.567 130.271C126.114 134.466 120.228 136.802 114.11 136.802H0.120361" stroke="#FFB2B1" stroke-width="5" stroke-linejoin="round"/>
<path d="M305.941 96.1456C305.941 101.182 301.859 105.264 296.822 105.264C291.786 105.264 287.704 101.182 287.704 96.1456C287.704 91.1095 291.786 87.0272 296.822 87.0272C301.859 87.0272 305.941 91.1095 305.941 96.1456Z" fill="#FF383D"/>
</svg>
